<svg
  xmlns="http://www.w3.org/2000/svg"
  xmlns:xlink="http://www.w3.org/1999/xlink"
  viewBox="0 0 100 100"

  fill="#fff"
  stroke="#fff"
  stroke-width="3"
  stroke-linecap="round"
>
  <g
    transform-origin="50 50"
  >
    <path
      d="
      M 12 4
      v 80

      m 0 -57
      h 24

      m 0 -5
      v 10
      "
    />

    <path
      stroke="none"
      d="
      M 44 19
      a 2 2 0 0 1 2 -2
      h 4
      a 2 2 0 0 1 2 2
      v 1
      a 2 2 0 0 0 2 2
      h 1
      a 2 2 0 0 0 2 -1
      l 2 -3
      l 18 1
      a 16 16 0 0 1 16 18
      v 4
      a 2 2 0 0 1 -2 0
      a 8 8 0 0 0 -16 -4
      a 2 2 0 0 1 -2 2
      l -14 -1
      a 2 2 0 0 1 -2 -2
      v -1
      a 2 2 0 0 0 -2 -2
      h -2
      a 2 2 0 0 0 -2 2
      v 1
      a 2 2 0 0 1 -2 2
      h -4
      a 2 2 0 0 1 -2 -2
      z

      m 15 21
      l 13 1
      l -2 55
      a 3 3 0 0 1 -4 3
      l -8 -0.5
      a 3 3 0 0 1 -3 -3.2
      "
    />
  </g>
  <g
    stroke="#f00"
    stroke-width="0.5"
    fill="none"
  >
    <style>
      .text {
        font: 60px sans-serif;
      }
    </style>

    <rect
      x="0"
      y="0"
      width="100"
      height="100"
    />
    </g>
</svg>